# xmcd
#
# Track frame offsets:
#	150
#	20030
#	38315
#	53600
#	74470
#	87560
#	107895
#	124770
#	148560
#	165725
#	177485
#	194715
#	214240
#	231460
#
# Disc length: 3323 seconds
#
# Revision: 2
# Processed by: cddbd v1.5PL3 Copyright (c) Steve Scherf et al.
# Submitted via: EasyCDDAExtractor 5.0.6
#
DISCID=d20cf90e
DTITLE=Rocio Jurado - Reinas de la Copla
DYEAR=1900
DGENRE=Coplas
TTITLE0=Señora
TTITLE1=Vete Ya
TTITLE2=A Pesar de Todo
TTITLE3=Quisiera Morir Contigo
TTITLE4=Si Te Habla de Mi
TTITLE5=Ese Hombre
TTITLE6=Muera el Amor
TTITLE7=Si Amanece
TTITLE8=Voy a Recobrar su Amor
TTITLE9=La Querida
TTITLE10=De Ahora en Adelante
TTITLE11=Amor Marinero
TTITLE12=Lo Siento Mi Amor
TTITLE13=Mi Amante Amigo
EXTD=
EXTT0=
EXTT1=
EXTT2=
EXTT3=
EXTT4=
EXTT5=
EXTT6=
EXTT7=
EXTT8=
EXTT9=
EXTT10=
EXTT11=
EXTT12=
EXTT13=
PLAYORDER=
